<svg xmlns="http://www.w3.org/2000/svg" width="640" height="400" viewBox="0 0 640 400"><defs><radialGradient id="g"><stop stop-color="#353127"/><stop offset="1" stop-color="#101112"/></radialGradient></defs><rect width="640" height="400" fill="url(#g)"/><circle cx="320" cy="200" r="140" fill="none" stroke="#d7ba84" stroke-opacity=".12"/><circle cx="320" cy="200" r="112" fill="none" stroke="#d7ba84" stroke-opacity=".22"/><path d="M0 340 Q320 210 640 340M0 370 Q320 240 640 370" fill="none" stroke="#d7ba84" stroke-opacity=".1"/><g transform="translate(272 152)"><svg xmlns="http://www.w3.org/2000/svg" width="96" height="96" viewBox="0 0 24 24" fill="none" stroke="#d7ba84" stroke-width="1" stroke-linecap="round" stroke-linejoin="round" class="lucide lucide-paintbrush"><path d="m14.622 17.897-10.68-2.913"></path><path d="M18.376 2.622a1 1 0 1 1 3.002 3.002L17.36 9.643a.5.5 0 0 0 0 .707l.944.944a2.41 2.41 0 0 1 0 3.408l-.944.944a.5.5 0 0 1-.707 0L8.354 7.348a.5.5 0 0 1 0-.707l.944-.944a2.41 2.41 0 0 1 3.408 0l.944.944a.5.5 0 0 0 .707 0z"></path><path d="M9 8c-1.804 2.71-3.97 3.46-6.583 3.948a.507.507 0 0 0-.302.819l7.32 8.883a1 1 0 0 0 1.185.204C12.735 20.405 16 16.792 16 15"></path></svg></g></svg>